<?xml version="1.0" standalone="yes"?>
<svg xmlns="http://www.w3.org/2000/svg" width="3000" height="3000">
<path style="fill:#010101; stroke:none;" d="M0 0L0 3000L3000 3000L3000 0L0 0z"/>
<path style="fill:#df3366; stroke:none;" d="M1481 485C1522.5 584.676 1574.18 680.367 1618.14 779C1630.69 807.16 1643.65 835.329 1657.24 863C1661 870.65 1665.11 888.326 1672.39 892.972C1677.21 896.045 1685.68 893.067 1691 893.004C1707.35 892.81 1723.6 891.613 1740 892.015C1790.05 893.24 1840.36 900.215 1889 912.374C2026.83 946.831 2146.72 1027.22 2244.04 1129C2277.04 1163.51 2313.23 1202.27 2337 1244C2337.95 1238.28 2332.27 1230.11 2329.76 1225C2322.62 1210.48 2316.3 1195.56 2309.26 1181C2283.32 1127.39 2259.21 1072.86 2233.78 1019C2222.03 994.11 2212.46 966.639 2198.39 943C2172.73 899.855 2136.78 859.935 2104.13 822C2029.81 735.651 1946.93 656.51 1854 590.291C1787.28 542.751 1713.58 494.803 1632 478.804C1596.66 471.873 1560.61 471.485 1525 476.282C1510.16 478.282 1495.76 483.012 1481 485z"/>
<path style="fill:#c1234d; stroke:none;" d="M1236 635L1242 630C1217.67 666.812 1190.71 700.575 1170.22 740C1164.26 751.475 1151.43 768.985 1150.6 782C1150.12 789.591 1158.46 801.226 1161.74 808C1171.34 827.837 1180.5 847.972 1189.69 868C1214.4 921.803 1239.99 975.197 1264.69 1029C1273.59 1048.38 1282.45 1067.8 1291.74 1087C1295.62 1095.02 1298.32 1105.12 1304 1112C1361.63 1014.28 1456.69 942.584 1566 911.427C1588.51 905.012 1611.78 900.942 1635 898.155C1647.08 896.705 1660.22 896.805 1672 894C1654.23 851.315 1632.6 810.022 1613.31 768C1586.62 709.887 1560.11 651.564 1532.26 594C1519.93 568.526 1508.12 542.718 1496.31 517C1492.87 509.506 1488.46 491.571 1481.36 487.067C1477.24 484.452 1468.1 489.3 1464 490.667C1447.7 496.101 1431.57 501.919 1416 509.22C1367.33 532.04 1321.3 559.222 1280 593.754C1265.35 606.003 1247.02 619.352 1236 635z"/>
<path style="fill:#df3366; stroke:none;" d="M1304 574L1305 575L1304 574M1302.67 575.333L1303.33 575.667L1302.67 575.333M1301 576L1302 577L1301 576M1298 579L1301 577L1298 579M1678 1234C1648.7 1230.28 1619.52 1228.35 1590 1231.17C1547.52 1235.23 1506.36 1247.28 1464 1251.83C1393.61 1259.4 1317.14 1255.8 1249 1235.28C1219.81 1226.49 1192.21 1213.82 1167 1196.66C1151.78 1186.29 1137.88 1173.95 1125.87 1160C1031.79 1050.69 1072.72 885.911 1135.86 772C1149.05 748.204 1163.49 725.065 1179.42 703C1198.88 676.061 1220.66 648.769 1245 626.089C1261.58 610.64 1283.87 596.474 1298 579C1286.41 583.457 1276.06 593.814 1266 601C1241.52 618.486 1217.73 637.088 1194 655.576C1111.88 719.561 1031.96 786.725 960.911 863C876.796 953.305 807.183 1054.68 760.011 1169C726.974 1249.07 710.786 1331.66 699.576 1417C696.538 1440.12 697 1463.7 697 1487C697 1619.06 738.917 1762.09 858 1835.19C879.449 1848.36 901.955 1858.53 926 1865.97C954.037 1874.65 982.856 1877 1012 1877C1048.59 1877 1084.66 1868.54 1119 1856.31C1224.83 1818.61 1297.02 1735.08 1375 1659.01C1406.43 1628.36 1440.09 1599.52 1475 1572.88C1516.57 1541.17 1560.33 1513.26 1609 1493.8C1625.03 1487.39 1641.38 1482.19 1658 1477.58C1662.67 1476.28 1674 1475.46 1676.97 1471.44C1679.74 1467.69 1678 1458.47 1678 1454L1678 1409L1678 1234z"/>
<path style="fill:#981b31; stroke:none;" d="M1245 626L1242 630L1245 626M1241 630C1217.36 653.643 1195.32 679.422 1176.34 707C1159.65 731.257 1144.32 756.095 1130.31 782C1120.23 800.641 1111.84 820.331 1104 840C1063.64 941.219 1046.97 1080.95 1131 1166C1141.33 1176.45 1151.87 1186.6 1164 1194.97C1189.85 1212.83 1218.05 1225.67 1248 1234.97C1293.89 1249.24 1343.19 1254 1391 1254L1391 1253C1356.13 1252.9 1313.14 1236.04 1296.32 1204C1286.09 1184.51 1287.51 1161.59 1293.15 1141C1295.53 1132.32 1305.37 1117.62 1302.17 1109C1292.67 1083.34 1278.72 1058.86 1267.31 1034C1241.85 978.559 1214.97 923.721 1190.14 868C1181.17 847.879 1171.63 827.92 1162.22 808C1159.01 801.201 1150.52 789.583 1151.03 782C1151.69 771.987 1160.93 759.923 1165.22 751C1179.17 721.994 1196.3 694.362 1214.72 668C1220.89 659.173 1227.37 650.582 1233.87 642C1236.44 638.602 1241.14 634.37 1241 630z"/>
<path style="fill:#c1234d; stroke:none;" d="M1224 647L1225 648L1224 647M1223 648L1224 649L1223 648M1222 649L1223 650L1222 649M1216 656L1217 657L1216 656M1215 657L1216 658L1215 657M1214 658L1215 659L1214 658M1209 664L1210 665L1209 664M1204 670L1205 671L1204 670M1200 675L1201 676L1200 675M1199 676L1200 677L1199 676M1196 680L1197 681L1196 680M1195 681L1196 682L1195 681M1192 685L1193 686L1192 685M1189 689L1190 690L1189 689M1188 690L1189 691L1188 690M1186 693L1187 694L1186 693M1185 694L1186 695L1185 694M1183 697L1184 698L1183 697M1182 698L1183 699L1182 698M1180 701L1181 702L1180 701M1179 702L1180 703L1179 702M1177 705L1178 706L1177 705M1175 708L1176 709L1175 708M1174 709L1175 710L1174 709M1173 711L1174 712L1173 711M1172 712L1173 713L1172 712M1170 715L1171 716L1170 715M1168 718L1169 719L1168 718M1166 721L1167 722L1166 721M1164 724L1165 725L1164 724M1162 727L1163 728L1162 727M1160 730L1161 731L1160 730M1158 733L1159 734L1158 733M1157 735L1158 736L1157 735M1156 736L1157 737L1156 736M1155 738L1156 739L1155 738M1153 741L1154 742L1153 741M1152 743L1153 744L1152 743M1150 746L1151 747L1150 746M1149 748L1150 749L1149 748M1147 751L1148 752L1147 751M1146 753L1147 754L1146 753M1144 756L1145 757L1144 756M1143 758L1144 759L1143 758M1141 761L1142 762L1141 761M1140 763L1141 764L1140 763M1139 765L1140 766L1139 765M1138 767L1139 768L1138 767M1136 770L1137 771L1136 770M1135 772L1136 773L1135 772M1134 774L1135 775L1134 774M1133 776L1134 777L1133 776M1132 778L1133 779L1132 778M1127 787L1128 788L1127 787M1126 789L1127 790L1126 789M1125 791L1126 792L1125 791M1124 793L1125 794L1124 793M1123 795L1124 796L1123 795M1119 804L1120 805L1119 804M1118 806L1119 807L1118 806M1117 808L1118 809L1117 808M1116 810L1117 811L1116 810M1115 812L1116 813L1115 812M1113 817L1114 818L1113 817M1112 819L1113 820L1112 819M1111 821L1112 822L1111 821M1110 824L1111 825L1110 824M1109 826L1110 827L1109 826M1108 828L1109 829L1108 828M1107 831L1108 832L1107 831M1106 833L1107 834L1106 833M1105 836L1106 837L1105 836M1104 838L1105 839L1104 838M1103 841L1104 842L1103 841M1102 843L1103 844L1102 843M1101 846L1102 847L1101 846M1100 849L1101 850L1100 849M1099 851L1100 852L1099 851M1098 854L1099 855L1098 854M1097 857L1098 858L1097 857M1096 860L1097 861L1096 860M1094 865L1095 866L1094 865M1093 868L1094 869L1093 868M1092 872L1093 873L1092 872M1091 875L1092 876L1091 875M1090 878L1091 879L1090 878M1089 881L1090 882L1089 881M1088.33 884.667L1088.67 885.333L1088.33 884.667M1087 888L1088 889L1087 888M1086.33 891.667L1086.67 892.333L1086.33 891.667M1085 895L1086 896L1085 895M1084 899L1085 900L1084 899M1083 903L1084 904L1083 903M1082 907L1083 908L1082 907M1081.33 911.667L1081.67 912.333L1081.33 911.667M1080.33 915.667L1080.67 916.333L1080.33 915.667M1079.33 920.667L1079.67 921.333L1079.33 920.667z"/>
<path style="fill:#981b31; stroke:none;" d="M1681 923C1687.69 931.665 1699.38 937.883 1708 944.661C1724.37 957.541 1740.84 971.539 1754.83 987C1797.09 1033.7 1829.18 1087.66 1837.72 1151C1841.55 1179.41 1840.22 1206.56 1839 1235L1980 1217C1967.72 1120.37 1918.31 1019.91 1834 967.425C1788.5 939.098 1734.24 925.285 1681 923z"/>
<path style="fill:#c1234d; stroke:none;" d="M1078.33 925.667L1078.67 926.333L1078.33 925.667z"/>
<path style="fill:#981b31; stroke:none;" d="M1600 926C1607.5 935.21 1619.25 941.903 1628 950.089C1639.67 961.011 1649.6 974.416 1657.94 988C1700.48 1057.33 1688.16 1140.14 1671 1215L1740 1232.34L1787 1253C1794.61 1156.62 1786.13 1059.35 1713 988.015C1698.6 973.967 1681.4 962.532 1664 952.579C1645.34 941.903 1621.48 929.172 1600 926z"/>
<path style="fill:#c1234d; stroke:none;" d="M1077.33 930.667L1077.67 931.333L1077.33 930.667z"/>
<path style="fill:#981b31; stroke:none;" d="M1855 932C1860.52 939.506 1869.18 944.767 1876 951.089C1890.49 964.519 1904.66 978.141 1917.71 993C1959.51 1040.56 1991.23 1096.53 2010.03 1157C2016.19 1176.83 2023.34 1198.2 2025 1219L2068 1205.67L2150 1179C2142.4 1152.63 2122.46 1126.09 2106.71 1104C2060.77 1039.56 1995.82 990.072 1924 957.694C1902.72 948.104 1878.25 935.434 1855 932z"/>
<path style="fill:#c1234d; stroke:none;" d="M1076 935L1076 938L1077 938L1076 935M1075 941L1075 944L1076 944L1075 941z"/>
<path style="fill:#ed5182; stroke:none;" d="M2200.33 946.667L2200.67 947.333L2200.33 946.667z"/>
<path style="fill:#c1234d; stroke:none;" d="M1074 948L1074 951L1075 951L1074 948z"/>
<path style="fill:#ed5182; stroke:none;" d="M2201 948L2222.74 996L2257.69 1071L2312.69 1189L2339.03 1246L2374.58 1301L2411 1365L2412 1365C2409.87 1350.59 2403.04 1335.66 2398.05 1322C2390.46 1301.21 2382.99 1280.42 2374.42 1260C2344.17 1187.91 2309.45 1118.08 2269.2 1051C2254.76 1026.93 2239.57 1003.35 2224 980C2217.15 969.718 2210.56 955.9 2201 948z"/>
<path style="fill:#c1234d; stroke:none;" d="M1073 955L1073 959L1074 959L1073 955M1072 964L1072 969L1073 969L1072 964M1071 976L1071 984L1072 984L1071 976M1071 1016L1071 1023L1072 1023L1071 1016z"/>
<path style="fill:#981b31; stroke:none;" d="M2093 1026C2095.89 1033.46 2102.35 1039.64 2107.13 1046C2115.97 1057.78 2124.5 1069.73 2132.67 1082C2155.63 1116.51 2175.01 1153.53 2190.4 1192C2196.84 1208.11 2202.72 1224.39 2207.72 1241C2209.03 1245.35 2210.6 1257.4 2214.56 1259.88C2219.13 1262.75 2233.11 1256.4 2238 1255C2258.76 1249.07 2279.86 1242.37 2301 1238C2291.38 1215.24 2267.38 1193.51 2251.28 1175C2219.07 1137.97 2183.83 1103.27 2147 1070.84C2130.04 1055.91 2112.62 1037.33 2093 1026z"/>
<path style="fill:#c1234d; stroke:none;" d="M1072 1030L1072 1034L1073 1034L1072 1030M1073 1039L1073 1042L1074 1042L1073 1039M1074.33 1046.67L1074.67 1047.33L1074.33 1046.67M1075.33 1052.67L1075.67 1053.33L1075.33 1052.67M1076.33 1057.67L1076.67 1058.33L1076.33 1057.67M1077.33 1062.67L1077.67 1063.33L1077.33 1062.67M1078.33 1066.67L1078.67 1067.33L1078.33 1066.67M1079.33 1070.67L1079.67 1071.33L1079.33 1070.67M1080 1074L1081 1075L1080 1074M1081 1078L1082 1079L1081 1078M1082 1081L1083 1082L1082 1081M1083 1084L1084 1085L1083 1084M1084 1087L1085 1088L1084 1087M1085 1090L1086 1091L1085 1090M1086 1093L1087 1094L1086 1093M1087 1096L1088 1097L1087 1096M1088 1098L1089 1099L1088 1098M1089 1101L1090 1102L1089 1101M1090 1103L1091 1104L1090 1103M1091 1105L1092 1106L1091 1105M1093 1110L1094 1111L1093 1110M1094 1112L1095 1113L1094 1112M1095 1114L1096 1115L1095 1114M1096 1116L1097 1117L1096 1116M1097 1118L1098 1119L1097 1118M1098 1120L1099 1121L1098 1120M1099 1122L1100 1123L1099 1122M1102 1127L1103 1128L1102 1127M1103 1129L1104 1130L1103 1129M1105 1132L1106 1133L1105 1132M1106 1134L1107 1135L1106 1134M1108 1137L1109 1138L1108 1137M1110 1140L1111 1141L1110 1140M1112 1143L1113 1144L1112 1143M1113 1144L1114 1145L1113 1144M1115 1147L1116 1148L1115 1147M1116 1148L1117 1149L1116 1148M1118 1151L1119 1152L1118 1151M1119 1152L1120 1153L1119 1152M1122 1156L1123 1157L1122 1156M1123 1157L1124 1158L1123 1157M1124 1158L1125 1159L1124 1158M1128 1163L1129 1164L1128 1163M1129 1164L1130 1165L1129 1164M1130 1165L1131 1166L1130 1165M1131 1166L1132 1167L1131 1166M1132 1167L1133 1168L1132 1167M1133 1168L1134 1169L1133 1168M1134 1169L1135 1170L1134 1169M1135 1170L1136 1171L1135 1170M1136 1171L1137 1172L1136 1171M1137 1172L1138 1173L1137 1172M1138 1173L1139 1174L1138 1173M1139 1174L1140 1175L1139 1174M1140 1175L1141 1176L1140 1175M1141 1176L1142 1177L1141 1176M1142 1177L1143 1178L1142 1177M1143 1178L1144 1179L1143 1178M2026 1219L2030.83 1256L2034.99 1338L2027.72 1430L2019 1486C2034.51 1483.71 2050.07 1476.11 2065 1471.34C2095.39 1461.64 2125.73 1451.76 2156 1441.67C2166.97 1438.01 2178.03 1434.65 2189 1431C2192.67 1429.78 2199.62 1428.83 2201.97 1425.49C2204.57 1421.79 2203.05 1413.34 2203 1409C2202.82 1393.8 2201.14 1378.1 2199.28 1363C2193.98 1319.76 2185.92 1277.65 2172.97 1236C2166.95 1216.6 2156.58 1198.38 2151 1179C2108.32 1185.3 2068.03 1209.28 2026 1219M1148 1182L1149 1183L1148 1182M1149 1183L1150 1184L1149 1183M1150 1184L1151 1185L1150 1184M1154 1187L1155 1188L1154 1187M1155 1188L1156 1189L1155 1188M1159 1191L1160 1192L1159 1191M1163 1194L1164 1195L1163 1194M1166 1196L1167 1197L1166 1196M1169 1198L1170 1199L1169 1198M1172 1200L1173 1201L1172 1200M1175 1202L1176 1203L1175 1202M1178 1204L1179 1205L1178 1204M1180 1205L1181 1206L1180 1205M1183 1207L1184 1208L1183 1207M1185 1208L1186 1209L1185 1208M1187 1209L1188 1210L1187 1209M1192 1212L1193 1213L1192 1212M1194 1213L1195 1214L1194 1213M1196 1214L1197 1215L1196 1214M1198 1215L1199 1216L1198 1215M1200 1216L1201 1217L1200 1216M1202 1217L1203 1218L1202 1217M1839 1235C1838.49 1246.98 1836.22 1259.18 1834.25 1271C1833.47 1275.65 1831.04 1282.41 1832.62 1287C1835.17 1294.43 1844.21 1301.35 1848.65 1308C1859.66 1324.51 1867.92 1344.85 1867.92 1365C1867.92 1378.08 1863.86 1392.55 1857.69 1404C1853.88 1411.07 1847.55 1417.45 1845 1425L1986 1406L1988.96 1356L1986.09 1264L1982 1229L1978.57 1217.62L1967 1218.42L1941 1221.84L1839 1235M1204 1218L1205 1219L1204 1218M1209 1220L1210 1221L1209 1220M1211 1221L1212 1222L1211 1221M1213 1222L1214 1223L1213 1222M1218 1224L1219 1225L1218 1224M1223 1226L1224 1227L1223 1226M1226 1227L1227 1228L1226 1227M1228 1228L1229 1229L1228 1228M1231 1229L1232 1230L1231 1229M1234 1230L1235 1231L1234 1230M1237 1231L1238 1232L1237 1231M1240 1232L1241 1233L1240 1232M1243 1233L1244 1234L1243 1233M1246 1234L1247 1235L1246 1234z"/>
<path style="fill:#ed5182; stroke:none;" d="M1678 1234L1678 1472C1705.06 1469.85 1735.14 1463.2 1761 1454.97C1815.12 1437.75 1866.17 1390.62 1841.4 1330C1837.4 1320.23 1830.87 1310.82 1823.83 1303C1787.16 1262.26 1730.35 1243.86 1678 1234z"/>
<path style="fill:#c1234d; stroke:none;" d="M1249 1235L1250 1236L1249 1235M1253 1236L1254 1237L1253 1236M1256 1237L1257 1238L1256 1237M1260 1238L1261 1239L1260 1238M2214 1261C2217.42 1286.4 2225.62 1311.51 2229.58 1337C2235.86 1377.52 2237 1418.08 2237 1459L2311 1439.15L2395 1416C2383.77 1367.46 2356.22 1319.38 2329.34 1278C2322.99 1268.22 2316.64 1258.5 2309.86 1249C2307.56 1245.78 2304.83 1240.02 2300.83 1238.69C2294.72 1236.67 2283.06 1242.51 2277 1244.12C2256.05 1249.65 2235.22 1256.62 2214 1261M1263.67 1239.33L1264.33 1239.67L1263.67 1239.33M1268 1240L1269 1241L1268 1240M1272 1241L1273 1242L1272 1241M1276.67 1242.33L1277.33 1242.67L1276.67 1242.33M1281.67 1243.33L1282.33 1243.67L1281.67 1243.33M1286.67 1244.33L1287.33 1244.67L1286.67 1244.33M1291.67 1245.33L1292.33 1245.67L1291.67 1245.33M1297 1246L1298 1247L1297 1246M1302 1247L1302 1248L1305 1248L1302 1247M1309.67 1248.33L1310.33 1248.67L1309.67 1248.33M1316 1249L1316 1250L1319 1250L1316 1249M1324 1250L1324 1251L1327 1251L1324 1250M1334 1251L1334 1252L1337 1252L1334 1251M1345 1252L1345 1253L1349 1253L1345 1252M1360 1253L1360 1254L1366 1254L1360 1253z"/>
<path style="fill:#df3366; stroke:none;" d="M1759 1640C1796.86 1632.97 1835.82 1629.69 1874 1624.72C1894.36 1622.07 1917.51 1615.59 1938 1617C1942.43 1600.79 1949.42 1585.14 1954.28 1569C1969.69 1517.84 1984.99 1459.75 1985 1406C1953.45 1411.88 1920.87 1415.03 1889 1418.84C1875.75 1420.43 1856.85 1419.72 1844.58 1424.74C1839.62 1426.77 1835.9 1432.32 1832 1435.83C1825.06 1442.07 1817.09 1447.48 1809 1452.13C1804.19 1454.89 1795.06 1457.54 1791.99 1462.22C1789.16 1466.54 1788.54 1473.99 1787.42 1479C1784.84 1490.65 1782.14 1502.29 1779.8 1514C1771.65 1554.72 1759.35 1598.29 1759 1640M2237 1459C2237 1534.16 2217 1607.82 2217 1683C2235.39 1680.52 2254.12 1673.39 2272 1668.42C2302.62 1659.91 2333.38 1651.94 2364 1643.42C2375.98 1640.1 2387.97 1636.76 2400 1633.63C2404.26 1632.52 2412.18 1631.81 2415.26 1628.44C2417.99 1625.44 2417.64 1617.89 2417.91 1614C2418.78 1601.31 2419 1588.74 2419 1576C2419 1524.37 2415.73 1464.16 2395 1416L2237 1459M2202 1426C2187.67 1432.35 2171.87 1436.04 2157 1441C2128.72 1450.43 2100.46 1460.13 2072 1468.97C2059.61 1472.82 2047.31 1476.9 2035 1481C2030.57 1482.48 2023.14 1483.49 2019.74 1486.84C2015.29 1491.23 2015.23 1504.03 2014 1510C2010.04 1529.12 2005.36 1548.07 2000.63 1567C1991.34 1604.14 1979.77 1640.7 1967.67 1677C1955.62 1713.13 1943 1749.44 1943 1788C1964.74 1786.1 1989.26 1773.91 2010 1767C2044.27 1755.58 2078.66 1744.52 2113 1733.33C2131.86 1727.18 2150.65 1719.44 2170 1715C2172.03 1690.14 2181.13 1664.65 2185.58 1640C2193.9 1593.86 2198.9 1547.66 2202.09 1501C2203.29 1483.4 2204 1465.67 2204 1448C2204 1441.17 2205.62 1432.04 2202 1426M1732 1481C1681.12 1482.05 1625.12 1503.27 1580 1525.26C1568.72 1530.75 1557.75 1537.15 1547 1543.6C1543.27 1545.84 1537.63 1548.02 1537.32 1553.02C1534.17 1603.92 1596.89 1617.54 1634 1603.57C1685.39 1584.24 1715.85 1530.63 1732 1481z"/>
<path style="fill:#ed5182; stroke:none;" d="M1936 1616C1926.53 1618.83 1915.8 1618.99 1906 1620.28L1838 1629.28C1819 1631.76 1800.03 1634.56 1781 1636.84C1775.98 1637.45 1763.47 1636.9 1759.94 1640.74C1755.18 1645.91 1758 1661.42 1758 1668C1758 1699.55 1772.06 1739.79 1806 1748.52C1852.6 1760.5 1890.2 1710.75 1910.15 1676C1918.12 1662.12 1924.84 1647.69 1931.15 1633C1933.24 1628.14 1937.83 1621.29 1936 1616M2415 1629L2330 1652.42L2217 1683C2217 1708.27 2218.4 1733.44 2224.88 1758C2229.09 1773.94 2236.02 1790.26 2248.04 1801.91C2275.69 1828.71 2318.71 1820.26 2346 1798.2C2378.68 1771.77 2395.93 1726.59 2405.87 1687C2409.27 1673.49 2412.21 1659.8 2414.13 1646C2414.87 1640.71 2417.1 1634.06 2415 1629M1943 1788C1943 1839.09 1963.76 1896.22 2022 1901.17C2030.86 1901.92 2040.41 1900.98 2049 1898.57C2059.74 1895.56 2069.73 1890.82 2079 1884.65C2121.5 1856.3 2144.3 1806.52 2158 1759C2162.05 1744.95 2167.81 1729.6 2169 1715C2109.68 1728.6 2052.29 1754.16 1994 1771.72C1977.3 1776.75 1960.26 1785.45 1943 1788z"/>
</svg>
